<svg xmlns="http://www.w3.org/2000/svg" width="20.101" height="21.568" viewBox="0 0 20.101 21.568">
  <path id="Doctor" d="M9.349,2.978h.978a1.957,1.957,0,0,1,1.957,1.957V8.849a4.892,4.892,0,0,1-4.892,4.892M5.435,2.978H4.457A1.957,1.957,0,0,0,2.5,4.935V8.849a4.892,4.892,0,0,0,4.892,4.892m0,0v2.446a5.381,5.381,0,1,0,10.763,0v-.978m0,0a2.446,2.446,0,1,0-2.446-2.446A2.446,2.446,0,0,0,18.155,15.209ZM9.349,2V3.957M5.435,2V3.957" transform="translate(-1.5 -1)" fill="none" stroke="#fff" stroke-linecap="round" stroke-linejoin="round" stroke-width="2"/>
</svg>
