<svg xmlns="http://www.w3.org/2000/svg" width="22.36" height="24.604" viewBox="0 0 22.36 24.604">
  <g id="Inventory" transform="translate(1.063 1.034)">
    <path id="Path_356" data-name="Path 356" d="M24.734,18.738V9.745A2.248,2.248,0,0,0,23.61,7.8L15.741,3.3a2.248,2.248,0,0,0-2.248,0L5.624,7.8A2.248,2.248,0,0,0,4.5,9.745v8.993a2.248,2.248,0,0,0,1.124,1.945l7.869,4.5a2.248,2.248,0,0,0,2.248,0l7.869-4.5a2.248,2.248,0,0,0,1.124-1.945Z" transform="translate(-4.5 -3.003)" fill="none" stroke="#fff" stroke-linecap="round" stroke-linejoin="round" stroke-width="2"/>
    <path id="Path_357" data-name="Path 357" d="M4.905,10.44l9.813,5.677,9.813-5.677m-9.813,17V16.105" transform="translate(-4.601 -4.867)" fill="none" stroke="#fff" stroke-linecap="round" stroke-linejoin="round" stroke-width="2"/>
  </g>
</svg>
