<svg xmlns="http://www.w3.org/2000/svg" width="24.474" height="22.752" viewBox="0 0 24.474 22.752">
  <g id="Invoice_Receipts" data-name="Invoice &amp; Receipts" transform="translate(-1.5 -2)">
    <g id="Wallet" transform="translate(2.5 3)">
      <path id="Stroke_1" data-name="Stroke 1" d="M22.813,15.334H18.06a3.16,3.16,0,1,1,0-6.32h4.754" transform="translate(-0.34 -1.952)" fill="none" stroke="#fff" stroke-linecap="round" stroke-linejoin="round" stroke-width="2"/>
      <path id="Stroke_3" data-name="Stroke 3" d="M18.1,11.643h-.366" transform="translate(0.155 -1.494)" fill="none" stroke="#fff" stroke-linecap="round" stroke-linejoin="round" stroke-width="2"/>
      <path id="Stroke_5" data-name="Stroke 5" d="M8.662,3H18.811a6.162,6.162,0,0,1,6.162,6.162V17.59a6.162,6.162,0,0,1-6.162,6.162H8.662A6.162,6.162,0,0,1,2.5,17.59V9.162A6.162,6.162,0,0,1,8.662,3Z" transform="translate(-2.5 -3)" fill="none" stroke="#fff" stroke-linecap="round" stroke-linejoin="round" stroke-width="2" fill-rule="evenodd"/>
      <path id="Stroke_7" data-name="Stroke 7" d="M7.036,7.538h6.34" transform="translate(-1.71 -2.209)" fill="none" stroke="#fff" stroke-linecap="round" stroke-linejoin="round" stroke-width="2"/>
    </g>
  </g>
</svg>
