<svg xmlns="http://www.w3.org/2000/svg" width="22.969" height="22.969" viewBox="0 0 22.969 22.969">
  <g id="Analyze" transform="translate(-0.9 -0.9)">
    <g id="Chart" transform="translate(1 1)">
      <path id="Line_182" d="M7.315,18.252a.944.944,0,0,1-.944-.944V10.145a.944.944,0,1,1,1.888,0v7.163A.944.944,0,0,1,7.315,18.252Z" transform="translate(-0.763 -0.638)" fill="none" stroke="#fff" stroke-linecap="round" stroke-linejoin="round" stroke-width="2" />
      <path id="Line_183" d="M11.982,18.4a.944.944,0,0,1-.944-.944V6.863a.944.944,0,1,1,1.888,0v10.59A.944.944,0,0,1,11.982,18.4Z" transform="translate(-0.557 -0.783)" fill="none" stroke="#fff" stroke-linecap="round" stroke-linejoin="round" stroke-width="2" />
      <path id="Line_184" d="M16.572,18.092a.944.944,0,0,1-.944-.944V13.77a.944.944,0,0,1,1.888,0v3.378A.944.944,0,0,1,16.572,18.092Z" transform="translate(-0.355 -0.478)" fill="none" stroke="#fff" stroke-linecap="round" stroke-linejoin="round" stroke-width="2" />
      <path id="Path" d="M7.492,1h9.785a6.29,6.29,0,0,1,4.748,1.935,6.941,6.941,0,0,1,1.745,4.84v9.219a6.941,6.941,0,0,1-1.745,4.84,6.29,6.29,0,0,1-4.748,1.935H7.492a6.29,6.29,0,0,1-4.748-1.935A6.941,6.941,0,0,1,1,16.994V7.775A6.936,6.936,0,0,1,2.749,2.934,6.289,6.289,0,0,1,7.492,1Zm9.785,20.882a4.452,4.452,0,0,0,3.366-1.334,5.1,5.1,0,0,0,1.239-3.554V7.775a5.1,5.1,0,0,0-1.239-3.554,4.452,4.452,0,0,0-3.366-1.334H7.492A4.451,4.451,0,0,0,4.129,4.222,5.092,5.092,0,0,0,2.888,7.775v9.219a5.1,5.1,0,0,0,1.239,3.554,4.452,4.452,0,0,0,3.366,1.334Z" transform="translate(-1 -1)" fill="none" stroke="#fff" stroke-linecap="round" stroke-linejoin="round" stroke-width="2" fill-rule="evenodd" />
    </g>
  </g>
</svg>
