<svg xmlns="http://www.w3.org/2000/svg" width="22.357" height="24.619" viewBox="0 0 22.357 24.619">
  <g id="Appointments" transform="translate(-2 -1)">
    <g id="Calendar" transform="translate(3 2)">
      <path id="Line_200" d="M3.093,9.4H23.251" transform="translate(-2.988 -1.03)" fill="none" stroke="#fff" stroke-linecap="round" stroke-linejoin="round" stroke-width="2"/>
      <path id="Line_201" d="M16.442,13.31h.01" transform="translate(-1.24 -0.519)" fill="none" stroke="#fff" stroke-linecap="round" stroke-linejoin="round" stroke-width="2"/>
      <path id="Line_202" d="M12,13.31h.01" transform="translate(-1.821 -0.519)" fill="none" stroke="#fff" stroke-linecap="round" stroke-linejoin="round" stroke-width="2"/>
      <path id="Line_203" d="M7.558,13.31h.01" transform="translate(-2.403 -0.519)" fill="none" stroke="#fff" stroke-linecap="round" stroke-linejoin="round" stroke-width="2"/>
      <path id="Line_204" d="M16.442,17.2h.01" transform="translate(-1.24 -0.01)" fill="none" stroke="#fff" stroke-linecap="round" stroke-linejoin="round" stroke-width="2"/>
      <path id="Line_205" d="M12,17.2h.01" transform="translate(-1.821 -0.01)" fill="none" stroke="#fff" stroke-linecap="round" stroke-linejoin="round" stroke-width="2"/>
      <path id="Line_206" d="M7.558,17.2h.01" transform="translate(-2.403 -0.01)" fill="none" stroke="#fff" stroke-linecap="round" stroke-linejoin="round" stroke-width="2"/>
      <path id="Line_207" d="M16.044,2V5.722" transform="translate(-1.292 -2)" fill="none" stroke="#fff" stroke-linecap="round" stroke-linejoin="round" stroke-width="2"/>
      <path id="Line_208" d="M7.966,2V5.722" transform="translate(-2.35 -2)" fill="none" stroke="#fff" stroke-linecap="round" stroke-linejoin="round" stroke-width="2"/>
      <path id="Path" d="M17.972,3.579H8.4C5.074,3.579,3,5.429,3,8.83V19.065c0,3.454,2.074,5.347,5.4,5.347h9.566c3.332,0,5.4-1.861,5.4-5.262V8.83C23.368,5.429,21.3,3.579,17.972,3.579Z" transform="translate(-3 -1.793)" fill="none" stroke="#fff" stroke-linecap="round" stroke-linejoin="round" stroke-width="2" fill-rule="evenodd"/>
    </g>
  </g>
</svg>
