<svg xmlns="http://www.w3.org/2000/svg" width="26.916" height="23.811" viewBox="0 0 26.916 23.811">
  <path id="Patients" d="M11.023,5.215c.7,2.088-.015,4.195-1.586,4.711S6.026,9.166,5.33,7.078s.015-4.195,1.586-4.711S10.328,3.127,11.023,5.215ZM4.887,10.358c.92,1.577.7,3.411-.5,4.093s-2.905-.044-3.82-1.62-.7-3.411.491-4.093,2.905.044,3.82,1.62ZM3.369,20.217c2.55-6.876,7.08-8.623,9.09-8.623s6.54,1.747,9.09,8.623A4.269,4.269,0,0,1,21.8,21.7v.078a2.272,2.272,0,0,1-2.273,2.273,6.758,6.758,0,0,1-1.655-.2l-4.282-1.071a4.7,4.7,0,0,0-2.268,0L7.043,23.848a6.758,6.758,0,0,1-1.655.2,2.272,2.272,0,0,1-2.273-2.273V21.7a4.269,4.269,0,0,1,.253-1.484Zm17.159-5.767c-1.192-.681-1.416-2.516-.5-4.093s2.628-2.3,3.82-1.62,1.416,2.516.5,4.093-2.628,2.3-3.82,1.62ZM15.092,9.925C13.52,9.409,12.809,7.3,13.505,5.215s2.535-3.363,4.107-2.847S19.895,4.991,19.2,7.078,16.663,10.441,15.092,9.925Z" transform="translate(0.999 -1.241)" fill="none" stroke="#fff" stroke-width="2"/>
</svg>
