<svg xmlns="http://www.w3.org/2000/svg" width="24.473" height="20.471" viewBox="0 0 24.473 20.471">
  <g id="Customer_Portal" data-name="Customer Portal" transform="translate(1 1.084)">
    <path id="Path_525" data-name="Path 525" d="M17.844,28.629V26.586A4.086,4.086,0,0,0,13.758,22.5H5.586A4.086,4.086,0,0,0,1.5,26.586v2.043" transform="translate(-1.5 -10.242)" fill="none" stroke="#000" stroke-linecap="round" stroke-linejoin="round" stroke-width="2"/>
    <path id="Path_526" data-name="Path 526" d="M15.672,8.586A4.086,4.086,0,1,1,11.586,4.5a4.086,4.086,0,0,1,4.086,4.086Z" transform="translate(-3.414 -4.5)" fill="none" stroke="#000" stroke-linecap="round" stroke-linejoin="round" stroke-width="2"/>
    <path id="Path_527" data-name="Path 527" d="M31.151,22.949V20.906a4.086,4.086,0,0,0-3.065-3.953M24,4.695a4.086,4.086,0,0,1,0,7.917" transform="translate(-8.677 -4.562)" fill="none" stroke="#000" stroke-linecap="round" stroke-linejoin="round" stroke-width="2"/>
  </g>
</svg>
